<mxfile host="Electron" modified="2023-09-19T11:58:46.118Z" agent="Mozilla/5.0 (X11; Linux x86_64) AppleWebKit/537.36 (KHTML, like Gecko) draw.io/21.7.5 Chrome/114.0.5735.289 Electron/25.8.1 Safari/537.36" version="21.7.5" etag="23X3QLnOxflPkCrsTMBC" type="device">
  <diagram id="quYzMjO1wtzwmHY5NuLg" name="第 1 页">
    <mxGraphModel dx="842" dy="493" grid="1" gridSize="10" guides="1" tooltips="1" connect="1" arrows="1" fold="1" page="1" pageScale="1" pageWidth="1169" pageHeight="827" math="0" shadow="0">
      <root>
        <mxCell id="0" />
        <mxCell id="1" parent="0" />
        <mxCell id="2" value="&lt;font style=&quot;font-size: 20px;&quot;&gt;Duplication Detector Package&lt;/font&gt;" style="swimlane;whiteSpace=wrap;html=1;startSize=40;" parent="1" vertex="1">
          <mxGeometry x="320" y="230" width="520" height="380" as="geometry" />
        </mxCell>
        <mxCell id="6" value="&lt;font style=&quot;font-size: 12px;&quot;&gt;Binary Crate&lt;br&gt;&lt;/font&gt;" style="swimlane;whiteSpace=wrap;html=1;fontSize=20;" parent="2" vertex="1">
          <mxGeometry x="20" y="50" width="480" height="120" as="geometry" />
        </mxCell>
        <mxCell id="13" style="edgeStyle=none;html=1;exitX=1;exitY=0.75;exitDx=0;exitDy=0;entryX=0;entryY=0.75;entryDx=0;entryDy=0;fontFamily=Helvetica;fontSize=14;" parent="6" source="5" target="3" edge="1">
          <mxGeometry relative="1" as="geometry" />
        </mxCell>
        <mxCell id="19" value="&lt;font style=&quot;font-size: 7px;&quot;&gt;Config&lt;/font&gt;" style="edgeLabel;html=1;align=center;verticalAlign=middle;resizable=0;points=[];fontSize=8;fontFamily=Helvetica;" parent="13" vertex="1" connectable="0">
          <mxGeometry x="-0.1767" relative="1" as="geometry">
            <mxPoint x="5" as="offset" />
          </mxGeometry>
        </mxCell>
        <mxCell id="5" value="&lt;font style=&quot;font-size: 14px;&quot;&gt;CLI-parser&lt;/font&gt;" style="rounded=0;whiteSpace=wrap;html=1;fontSize=20;" parent="6" vertex="1">
          <mxGeometry x="40" y="40" width="100" height="60" as="geometry" />
        </mxCell>
        <mxCell id="12" style="edgeStyle=none;html=1;exitX=0;exitY=0.25;exitDx=0;exitDy=0;entryX=1;entryY=0.25;entryDx=0;entryDy=0;fontFamily=Helvetica;fontSize=14;" parent="6" source="3" target="5" edge="1">
          <mxGeometry relative="1" as="geometry" />
        </mxCell>
        <mxCell id="18" value="&lt;font style=&quot;font-size: 7px;&quot;&gt;ArgMatches&lt;/font&gt;" style="edgeLabel;html=1;align=center;verticalAlign=middle;resizable=0;points=[];fontSize=12;fontFamily=Helvetica;" parent="12" vertex="1" connectable="0">
          <mxGeometry x="-0.1269" y="-1" relative="1" as="geometry">
            <mxPoint x="-5" as="offset" />
          </mxGeometry>
        </mxCell>
        <mxCell id="3" value="&lt;p style=&quot;&quot;&gt;&lt;font style=&quot;font-size: 14px;&quot;&gt;Starter&lt;/font&gt;&lt;/p&gt;" style="rounded=0;whiteSpace=wrap;html=1;fontSize=20;" parent="6" vertex="1">
          <mxGeometry x="320" y="40" width="100" height="60" as="geometry" />
        </mxCell>
        <mxCell id="7" value="&lt;span style=&quot;font-size: 12px;&quot;&gt;Library Crate&lt;/span&gt;" style="swimlane;whiteSpace=wrap;html=1;fontFamily=Helvetica;fontSize=20;" parent="2" vertex="1">
          <mxGeometry x="20" y="200" width="480" height="160" as="geometry" />
        </mxCell>
        <mxCell id="22" value="&lt;font style=&quot;font-size: 14px;&quot;&gt;Pre-processor&lt;/font&gt;" style="rounded=0;whiteSpace=wrap;html=1;fontFamily=Helvetica;fontSize=7;" parent="7" vertex="1">
          <mxGeometry x="40" y="80" width="100" height="60" as="geometry" />
        </mxCell>
        <mxCell id="24" value="&lt;font style=&quot;font-size: 14px;&quot;&gt;Processor&lt;/font&gt;" style="rounded=0;whiteSpace=wrap;html=1;fontFamily=Helvetica;fontSize=7;" parent="7" vertex="1">
          <mxGeometry x="350" y="90" width="100" height="60" as="geometry" />
        </mxCell>
        <mxCell id="4" value="&lt;font style=&quot;font-size: 14px;&quot;&gt;Controller&lt;/font&gt;" style="rounded=0;whiteSpace=wrap;html=1;fontSize=20;" parent="7" vertex="1">
          <mxGeometry x="195" y="30" width="100" height="60" as="geometry" />
        </mxCell>
        <mxCell id="29" style="edgeStyle=elbowEdgeStyle;elbow=vertical;html=1;exitX=0.25;exitY=1;exitDx=0;exitDy=0;fontFamily=Helvetica;fontSize=14;entryX=1.017;entryY=0.329;entryDx=0;entryDy=0;entryPerimeter=0;" parent="7" source="4" target="22" edge="1">
          <mxGeometry relative="1" as="geometry">
            <Array as="points">
              <mxPoint x="200" y="100" />
            </Array>
            <mxPoint x="170" y="100" as="targetPoint" />
          </mxGeometry>
        </mxCell>
        <mxCell id="32" value="&lt;font style=&quot;font-size: 10px;&quot;&gt;File&lt;/font&gt;" style="edgeLabel;html=1;align=center;verticalAlign=middle;resizable=0;points=[];fontSize=7;fontFamily=Helvetica;" parent="29" vertex="1" connectable="0">
          <mxGeometry x="0.0724" y="-1" relative="1" as="geometry">
            <mxPoint x="-2" y="1" as="offset" />
          </mxGeometry>
        </mxCell>
        <mxCell id="28" style="edgeStyle=elbowEdgeStyle;html=1;exitX=1;exitY=0.75;exitDx=0;exitDy=0;entryX=0.398;entryY=1.003;entryDx=0;entryDy=0;fontFamily=Helvetica;fontSize=14;elbow=vertical;entryPerimeter=0;" parent="7" source="22" target="4" edge="1">
          <mxGeometry relative="1" as="geometry">
            <Array as="points">
              <mxPoint x="200" y="130" />
              <mxPoint x="325" y="-50" />
              <mxPoint x="385" y="-40" />
              <mxPoint x="325" y="-40" />
            </Array>
          </mxGeometry>
        </mxCell>
        <mxCell id="30" value="&lt;font style=&quot;&quot;&gt;&lt;font style=&quot;font-size: 10px;&quot;&gt;String&lt;/font&gt;&lt;br&gt;&lt;/font&gt;" style="edgeLabel;html=1;align=center;verticalAlign=middle;resizable=0;points=[];fontSize=14;fontFamily=Helvetica;" parent="28" vertex="1" connectable="0">
          <mxGeometry x="-0.156" y="1" relative="1" as="geometry">
            <mxPoint x="-14" y="1" as="offset" />
          </mxGeometry>
        </mxCell>
        <mxCell id="27" style="edgeStyle=elbowEdgeStyle;elbow=vertical;html=1;exitX=0.75;exitY=1;exitDx=0;exitDy=0;entryX=0;entryY=0.75;entryDx=0;entryDy=0;fontFamily=Helvetica;fontSize=14;" parent="7" source="4" target="24" edge="1">
          <mxGeometry relative="1" as="geometry">
            <mxPoint x="453" y="-80.00000000000011" as="sourcePoint" />
            <mxPoint x="373" y="29.999999999999886" as="targetPoint" />
            <Array as="points">
              <mxPoint x="310" y="135" />
              <mxPoint x="405" y="-10" />
              <mxPoint x="425" y="-20" />
            </Array>
          </mxGeometry>
        </mxCell>
        <mxCell id="33" value="(String, String)" style="edgeLabel;html=1;align=center;verticalAlign=middle;resizable=0;points=[];fontSize=10;fontFamily=Helvetica;" parent="27" vertex="1" connectable="0">
          <mxGeometry x="0.2358" relative="1" as="geometry">
            <mxPoint x="-2" as="offset" />
          </mxGeometry>
        </mxCell>
        <mxCell id="26" style="edgeStyle=elbowEdgeStyle;html=1;exitX=0;exitY=0.25;exitDx=0;exitDy=0;entryX=0.904;entryY=0.997;entryDx=0;entryDy=0;fontFamily=Helvetica;fontSize=14;elbow=vertical;entryPerimeter=0;" parent="7" source="24" target="4" edge="1">
          <mxGeometry relative="1" as="geometry">
            <mxPoint x="394" y="29.999999999999886" as="sourcePoint" />
            <mxPoint x="474" y="-80.00000000000011" as="targetPoint" />
            <Array as="points">
              <mxPoint x="320" y="110" />
              <mxPoint x="445" />
              <mxPoint x="455" y="-10" />
            </Array>
          </mxGeometry>
        </mxCell>
        <mxCell id="34" value="Ratio" style="edgeLabel;html=1;align=center;verticalAlign=middle;resizable=0;points=[];fontSize=10;fontFamily=Helvetica;" parent="26" vertex="1" connectable="0">
          <mxGeometry x="0.0153" y="-1" relative="1" as="geometry">
            <mxPoint x="11" y="1" as="offset" />
          </mxGeometry>
        </mxCell>
        <mxCell id="15" style="edgeStyle=none;html=1;exitX=0;exitY=0.75;exitDx=0;exitDy=0;entryX=1;entryY=0.75;entryDx=0;entryDy=0;fontFamily=Helvetica;fontSize=14;" parent="2" source="4" target="3" edge="1">
          <mxGeometry relative="1" as="geometry">
            <Array as="points">
              <mxPoint x="130" y="275" />
              <mxPoint x="130" y="180" />
              <mxPoint x="470" y="180" />
              <mxPoint x="470" y="135" />
            </Array>
          </mxGeometry>
        </mxCell>
        <mxCell id="21" value="Result" style="edgeLabel;html=1;align=center;verticalAlign=middle;resizable=0;points=[];fontSize=7;fontFamily=Helvetica;" parent="15" vertex="1" connectable="0">
          <mxGeometry x="0.3524" y="1" relative="1" as="geometry">
            <mxPoint x="14" as="offset" />
          </mxGeometry>
        </mxCell>
        <mxCell id="14" style="edgeStyle=none;html=1;exitX=1;exitY=0.25;exitDx=0;exitDy=0;entryX=0;entryY=0.25;entryDx=0;entryDy=0;fontFamily=Helvetica;fontSize=14;" parent="2" source="3" target="4" edge="1">
          <mxGeometry relative="1" as="geometry">
            <Array as="points">
              <mxPoint x="480" y="105" />
              <mxPoint x="480" y="190" />
              <mxPoint x="160" y="190" />
              <mxPoint x="160" y="245" />
            </Array>
          </mxGeometry>
        </mxCell>
        <mxCell id="20" value="Config" style="edgeLabel;html=1;align=center;verticalAlign=middle;resizable=0;points=[];fontSize=7;fontFamily=Helvetica;" parent="14" vertex="1" connectable="0">
          <mxGeometry x="-0.3172" relative="1" as="geometry">
            <mxPoint x="13" as="offset" />
          </mxGeometry>
        </mxCell>
      </root>
    </mxGraphModel>
  </diagram>
</mxfile>
